<?xml version="1.0" standalone="no"?><!DOCTYPE svg PUBLIC "-//W3C//DTD SVG 1.1//EN" "http://www.w3.org/Graphics/SVG/1.1/DTD/svg11.dtd"><svg t="1694252750900" class="icon" viewBox="0 0 1024 1024" version="1.1" xmlns="http://www.w3.org/2000/svg" p-id="14976" xmlns:xlink="http://www.w3.org/1999/xlink" width="200" height="200"><path d="M512 1024c282.769067 0 512-229.230933 512-512H0c0 282.769067 229.230933 512 512 512z" fill="#F9F9F9" p-id="14977"></path><path d="M512 0C229.230933 0 0 229.230933 0 512h1024c0-282.769067-229.230933-512-512-512z" fill="#ED4C5C" p-id="14978"></path><path d="M328.32 264.32L307.2 247.68h26.24l7.68-25.6 8.32 25.6h26.24l-21.12 16.64 7.68 25.6-21.12-16-21.12 16 8.32-25.6z m136.32 0l-21.12-16.64h26.24l8.32-25.6 7.68 25.6H512l-21.12 16.64 8.32 25.6-21.12-16-21.12 16 7.68-25.6zM344.96 349.44l-20.48-16h25.6L358.4 307.2l8.32 26.24h25.6L371.2 349.44l8.32 26.24L358.4 359.68l-21.12 16 7.68-26.24z m103.04 0l-21.12-16h25.6L460.8 307.2l8.32 26.24h25.6l-20.48 16 7.68 26.24L460.8 359.68l-21.12 16 8.32-26.24z m-51.2-136.32l-21.12-16.64h25.6l8.32-25.6 8.32 25.6h25.6l-20.48 16.64 7.68 25.6L409.6 222.72l-21.12 16 8.32-25.6z" fill="#F9F9F9" p-id="14979"></path><path d="M384 442.88a151.68 151.68 0 0 1-149.12-154.24A151.68 151.68 0 0 1 384 133.76h17.28a147.84 147.84 0 0 0-64-15.36 166.4 166.4 0 0 0-166.4 171.52C168.3712 381.781333 240.810667 458.282667 332.672 460.8H332.8a156.16 156.16 0 0 0 76.8-20.48 128 128 0 0 1-25.6 2.56z" fill="#F9F9F9" p-id="14980"></path><path d="M512 0c282.769067 0 512 229.230933 512 512s-229.230933 512-512 512S0 794.769067 0 512 229.230933 0 512 0z m0 32C246.912 32 32 246.912 32 512S246.912 992 512 992 992 777.088 992 512 777.088 32 512 32z" fill="#EAEAEA" p-id="14981"></path></svg>