<?xml version="1.0" standalone="no"?><!DOCTYPE svg PUBLIC "-//W3C//DTD SVG 1.1//EN" "http://www.w3.org/Graphics/SVG/1.1/DTD/svg11.dtd"><svg t="1694252787378" class="icon" viewBox="0 0 1024 1024" version="1.1" xmlns="http://www.w3.org/2000/svg" p-id="17251" xmlns:xlink="http://www.w3.org/1999/xlink" width="200" height="200"><path d="M925.2352 331.4176c-22.5792-53.9648-54.8864-102.5024-96.1024-144.0768-41.1648-41.6256-89.1392-74.3424-142.54592-97.1776-55.296-23.6544-114.0224-35.6352-174.592-35.6352s-119.296 11.9808-174.592 35.6352c-53.4016 22.8352-101.376 55.552-142.5408 97.1776a451.77856 451.77856 0 0 0-96.1024 144.0768C75.3664 387.328 63.488 446.6688 63.488 507.904s11.8784 120.576 35.2768 176.4864a452.34688 452.34688 0 0 0 96.1024 144.0768c41.1648 41.63072 89.1392 74.34752 142.5408 97.13152 55.296 23.6544 114.0224 35.6864 174.592 35.6864s119.296-12.032 174.592-35.6864c53.40672-22.784 101.38112-55.5008 142.54592-97.13152a451.584 451.584 0 0 0 96.1024-144.0768c23.3984-55.9104 35.2768-115.2512 35.2768-176.4864s-11.88352-120.576-35.28192-176.4864zM512 958.3104c-245.7088 0-445.5936-202.0352-445.5936-450.4064S266.2912 57.4976 512 57.4976s445.5936 202.0352 445.5936 450.4064-199.8848 450.4064-445.5936 450.4064z" fill="" p-id="17252"></path><path d="M512 78.08c-233.984 0-423.7312 190.2592-423.7312 424.96s189.7472 424.96 423.7312 424.96 423.68-190.2592 423.68-424.96-189.696-424.96-423.68-424.96z m314.4704 308.0704l-20.8384 13.7728L767.4368 343.04l20.8384-13.824 38.1952 56.9344z m-81.8688 179.4048l20.8384 13.7728-38.1952 56.92928-20.8384-13.81888 38.1952-56.8832z m-39.6288-181.1456l20.7872-13.7728 38.2464 56.9344-20.83328 13.7728-38.20032-56.9344z m70.912 201.8304l20.7872 13.824-38.1952 56.87808-20.83328-13.76768 38.24128-56.9344z m-32.768-324.3008l38.1952 56.9344-20.83328 13.824-38.1952-56.9344 20.83328-13.824z m-31.232 20.6848l83.3536 124.2112-20.8384 13.824-83.3536-124.2112 20.8384-13.824z m-31.232 20.736l38.1952 56.9344-20.8384 13.7728-38.1952-56.9344 20.8384-13.7728z m-311.8592 13.0048L285.4912 440.5248l-20.8384-13.7728 83.3536-124.2112 20.7872 13.824z m-31.232-20.736L254.208 419.84l-20.7872-13.7728 83.3024-124.2112 20.8384 13.7728z m-44.032 346.3168l-20.8384 13.7728-38.1952-56.8832 20.8384-13.824 38.1952 56.9344zM285.4912 261.12l20.8384 13.824-83.3536 124.2112-20.8384-13.824L285.4912 261.12z m1.0752 482.6112L203.2128 619.52l20.8384-13.824 83.3536 124.2112-20.8384 13.824z m31.2832-20.736l-38.2464-56.9344 20.8384-13.76768 38.1952 56.92928-20.7872 13.7728z m31.232-20.6848L265.728 578.0992l20.8384-13.7728 83.3536 124.16-20.8384 13.824z m282.3168-109.7728c-26.7776 35.0208-68.9152 57.6-116.33152 57.6-81.0496 0-146.68288-65.8432-146.68288-147.0976 0-0.6144 0.0512-1.1776 0.0512-1.7408 6.0416 17.2544 16.896 32.6656 31.9488 42.7008 35.4816 23.6032 83.6608 15.7184 109.9264-18.3296 20.992-31.3344 63.5392-39.8336 94.976-18.8928 24.832 16.4864 35.5328 54.9376 26.112 85.76z m-18.8928-96.7168c-37.376-24.832-88.064-14.7456-112.7424 22.2208-21.8624 28.26752-62.3616 34.9184-92.16 15.0528-26.1632-17.408-37.632-55.5008-28.3648-85.6064 2.6624-6.5024 5.7344-12.7488 9.2672-18.7392l9.5232-14.3872c26.7776-35.4816 69.2224-58.4192 116.992-58.4192 81.0496 0 146.688 65.8432 146.688 147.0976 0 22.3232-5.0176 43.52-13.8752 62.464-1.024-27.8528-13.6704-55.2448-35.328-69.6832z m48.7936 193.8944l38.1952-56.9344 20.7872 13.824-38.1952 56.9344-20.7872-13.824z m31.1808 20.736l38.2464-56.9344 20.8384 13.7728-38.2464 56.9344-20.8384-13.7728z m52.1216 34.5088l-20.83328-13.824 38.1952-56.9344 20.83328 13.824-38.1952 56.9344z m45.1584-67.2768l-20.8384-13.824 38.1952-56.9344 20.8384 13.824-38.1952 56.9344z" fill="#FFFFFF" p-id="17253"></path><path d="M631.3984 592.5376c-26.7776 35.0208-68.9152 57.6-116.33152 57.6-81.0496 0-146.68288-65.8432-146.68288-147.0976 0-0.6144 0.0512-1.1776 0.0512-1.7408 6.0416 17.2544 16.896 32.6656 31.9488 42.7008 35.4816 23.6032 83.6608 15.7184 109.9264-18.3296 20.992-31.3344 63.5392-39.8336 94.976-18.8928 24.832 16.4864 35.5328 54.9376 26.112 85.76z" fill="#1200FF" p-id="17254"></path><path d="M661.7088 503.04c0 22.3232-5.0176 43.52-13.8752 62.464-1.024-27.8528-13.6704-55.2448-35.328-69.6832-37.376-24.832-88.064-14.7456-112.7424 22.2208-21.8624 28.26752-62.3616 34.9184-92.16 15.0528-26.1632-17.408-37.632-55.5008-28.3648-85.6064 2.6624-6.5024 5.7344-12.7488 9.2672-18.7392l9.5232-14.3872c26.7776-35.4816 69.2224-58.4192 116.992-58.4192 81.0496 0 146.688 65.8432 146.688 147.0976z" fill="#FF0000" p-id="17255"></path><path d="M826.4704 386.1504l-20.8384 13.7728L767.4368 343.04l20.8384-13.824zM781.312 318.8736l-20.8384 13.824-38.1952-56.9344 20.8384-13.824zM795.2384 406.8352l-20.8384 13.824-83.3536-124.2112 20.8384-13.824zM718.848 360.2944l-20.8384 13.7728-38.1952-56.9344 20.8384-13.7728zM764.0064 427.5712l-20.8384 13.7728-38.1952-56.9344 20.7872-13.7728zM720.2816 646.6048l-38.1952 56.9344-20.7872-13.824 38.1952-56.9344zM751.5648 667.2896l-38.2464 56.9344-20.8384-13.7728 38.2464-56.9344zM782.7968 688.0256l-38.1952 56.9344-20.8384-13.824 38.1952-56.9344zM827.9552 620.7488l-38.1952 56.9344-20.8384-13.824 38.1952-56.9344zM796.672 600.064l-38.1952 56.8832-20.8384-13.7728 38.2464-56.9344zM765.44 579.328l-38.1952 56.9344-20.8384-13.824 38.1952-56.8832zM293.5296 641.9456l-20.8384 13.7728-38.1952-56.8832 20.8384-13.824zM338.6368 709.2224l-20.7872 13.7728-38.2464-56.9344 20.8384-13.7728zM369.92 688.4864l-20.8384 13.824-83.3536-124.2112 20.8384-13.7728zM307.4048 729.9072l-20.8384 13.824L203.2128 619.52l20.8384-13.824zM306.3296 274.944L222.976 399.1552l-20.8384-13.824L285.4912 261.12zM337.5616 295.6288L254.208 419.84l-20.7872-13.7728 83.3024-124.2112zM368.7936 316.3648L285.4912 440.5248l-20.8384-13.7728 83.3536-124.2112z" fill="" p-id="17256"></path></svg>