<?xml version="1.0" standalone="no"?><!DOCTYPE svg PUBLIC "-//W3C//DTD SVG 1.1//EN" "http://www.w3.org/Graphics/SVG/1.1/DTD/svg11.dtd"><svg t="1694252692679" class="icon" viewBox="0 0 1024 1024" version="1.1" xmlns="http://www.w3.org/2000/svg" p-id="8574" xmlns:xlink="http://www.w3.org/1999/xlink" width="200" height="200"><path d="M227.555556 0h568.888888a227.555556 227.555556 0 0 1 227.555556 227.555556v568.888888a227.555556 227.555556 0 0 1-227.555556 227.555556H227.555556a227.555556 227.555556 0 0 1-227.555556-227.555556V227.555556a227.555556 227.555556 0 0 1 227.555556-227.555556z m257.422222 542.151111c-46.478222 24.689778-104.277333-6.940444-109.966222-67.470222-3.982222-37.660444-57.287111-85.219556-104.675556-73.329778-41.528889 11.946667-77.141333-5.973333-85.048889-51.541333-72.874667 182.727111 142.677333 352.426667 292.807111 202.922666a125.155556 125.155556 0 0 1-75.377778 19.114667 140.515556 140.515556 0 0 1-102.798222-51.541333l3.982222-3.982222a141.368889 141.368889 0 0 0 100.750223 49.550222c30.151111 1.763556 60.188444-7.566222 80.327111-23.779556z m17.408 11.605333c6.656 23.779556 5.063111 50.289778-2.844445 75.548445a145.806222 145.806222 0 0 1-81.009777 83.285333l-1.991112-3.982222c35.555556-13.880889 63.260444-43.633778 77.084445-79.303111 10.638222-28.444444 11.719111-58.481778 1.877333-83.000889 8.817778 52.053333-40.504889 96.312889-98.759111 84.992-39.480889-7.964444-100.750222 29.696-102.741333 77.312-1.991111 41.585778-29.696 71.338667-75.093334 63.431111 151.950222 127.317333 380.700444-28.899556 283.477334-218.282667z m14.791111-19.911111c23.04 2.275556 46.819556 11.889778 67.356444 28.046223 31.573333 25.827556 51.370667 63.431111 53.361778 103.082666l-5.916444 1.991111a136.305778 136.305778 0 0 0-51.427556-99.100444c-22.357333-19.000889-50.744889-29.013333-76.003555-28.615111 50.289778 9.102222 76.117333 67.925333 48.355555 119.808-19.740444 33.678222-3.925333 103.025778 41.528889 120.888889 39.537778 15.928889 57.344 49.550222 37.546667 91.192889 163.84-103.196444 90.794667-364.828444-114.801778-337.351112z m-21.048889-17.351111c9.272889-22.698667 26.168889-42.496 48.924444-57.685333a145.863111 145.863111 0 0 1 114.574223-19.797333v5.973333c-37.546667-9.955556-79.075556-3.982222-110.648889 17.806222-24.860444 16.611556-42.780444 38.798222-50.232889 61.895111 24.689778-45.226667 87.153778-50.460444 129.251555-6.371555 25.713778 27.761778 96.881778 35.669333 126.520889-1.991111 27.648-33.678222 67.128889-39.651556 98.816-7.964445-47.957333-190.407111-322.958222-199.793778-357.262222 8.135111z m80.497778-331.207111c-195.697778-11.946667-288.597333 247.808-100.807111 342.926222-19.740444-15.872-33.564444-37.660444-41.528889-65.422222a146.204444 146.204444 0 0 1 17.806222-114.915555l3.982222 1.934222c-19.911111 33.393778-25.6 73.386667-15.815111 111.047111 7.907556 27.761778 23.722667 51.541333 43.463111 67.356444-35.555556-37.660444-19.740444-99.100444 33.564445-122.88 35.612444-15.928889 63.260444-81.351111 37.546666-122.88-23.722667-35.726222-17.749333-75.377778 21.788445-97.166222zM481.735111 337.92l-11.832889 17.863111-3.982222-21.788444-21.731556-3.982223 19.797334-9.898666-1.991111-21.788445 15.815111 15.872 19.740444-7.964444-9.841778 19.854222 13.824 17.806222-19.797333-5.916444z m219.420445 114.972444l15.815111 17.863112-23.722667-1.991112-11.889778 17.863112-3.982222-21.788445-21.731556-5.973333 19.797334-9.898667v-21.845333l15.815111 13.880889 19.740444-7.964445-9.841777 19.911111z m-55.352889 243.825778l13.824 15.815111-21.731556-1.991111-11.889778 19.854222-5.916444-21.788444-19.797333-5.973333 17.806222-11.889778v-21.788445l15.815111 15.872 19.797333-7.964444-7.964444 19.854222z m-239.160889 0l-9.898667 19.797334 13.880889 17.863111-21.788444-1.991111-11.832889 17.863111-3.982223-21.788445-21.731555-5.973333 19.740444-9.898667-1.934222-21.845333 15.815111 13.880889 21.731556-7.964445zM299.918222 486.570667l13.824 17.863111-21.731555-3.982222-11.832889 19.854222-3.982222-21.845334-21.731556-5.916444 19.740444-9.955556-1.991111-23.779555 17.806223 15.928889 19.797333-7.964445-9.898667 19.797334z" fill="#E04153" p-id="8575"></path></svg>